<svg width="128" height="128" viewBox="0 0 128 128" fill="none" xmlns="http://www.w3.org/2000/svg">
<g clip-path="url(#clip0_402_163)">
<path fill-rule="evenodd" clip-rule="evenodd" d="M64 128C99.3462 128 128 99.3462 128 64C128 28.6538 99.3462 0 64 0C28.6538 0 0 28.6538 0 64C0 99.3462 28.6538 128 64 128Z" fill="black"/>
<path fill-rule="evenodd" clip-rule="evenodd" d="M54.2404 101.369C54.2404 100.41 54.2066 97.8714 54.1872 94.4999C43.2322 96.9393 40.9208 89.0857 40.9208 89.0857C39.1292 84.4201 36.547 83.1781 36.547 83.1781C32.9711 80.6717 36.8178 80.7238 36.8178 80.7238C40.7709 81.0089 42.8502 84.8861 42.8502 84.8861C46.3633 91.0565 52.0668 89.2765 54.313 88.2428C54.6708 85.6323 55.6887 83.8524 56.813 82.8434C48.0678 81.8245 38.8729 78.3588 38.8729 62.8845C38.8729 58.4768 40.4082 54.8722 42.9276 52.0486C42.5238 51.0272 41.1699 46.9219 43.3144 41.3614C43.3144 41.3614 46.622 40.2756 54.1437 45.5014C57.2844 44.6065 60.6548 44.1553 64.0059 44.1404C67.3497 44.1553 70.7177 44.6065 73.8656 45.5014C81.3826 40.2756 84.6853 41.3614 84.6853 41.3614C86.8347 46.9194 85.4831 51.0247 85.077 52.0486C87.6011 54.8722 89.1243 58.4768 89.1243 62.8845C89.1243 78.3985 79.915 81.8121 71.1408 82.8112C72.5576 84.0581 73.8149 86.5223 73.8149 90.2905C73.8149 95.6899 73.7641 100.046 73.7641 101.369C73.7641 102.45 74.4749 103.705 76.4744 103.31C92.1103 97.9607 103.384 82.8335 103.384 64.9992C103.384 42.6951 85.7491 24.6154 63.9986 24.6154C42.2506 24.6154 24.6152 42.6951 24.6152 64.9992C24.6177 82.8384 35.9015 97.9755 51.5519 103.315C53.5199 103.685 54.2404 102.438 54.2404 101.369Z" fill="white"/>
</g>
<defs>
<clipPath id="clip0_402_163">
<rect width="128" height="128" fill="white"/>
</clipPath>
</defs>
</svg>
