<svg width="128" height="128" viewBox="0 0 128 128" fill="none" xmlns="http://www.w3.org/2000/svg">
<g clip-path="url(#clip0_402_154)">
<path d="M58.7945 54.0527C58.6003 53.5359 58.2531 53.0906 57.7992 52.7762C57.3453 52.4618 56.8063 52.2934 56.2541 52.2934C55.702 52.2934 55.163 52.4618 54.7091 52.7762C54.2552 53.0906 53.908 53.5359 53.7138 54.0527L48.4825 68.05C48.3271 68.4815 48.348 68.9568 48.5408 69.373C48.7335 69.7891 49.0825 70.1125 49.5121 70.2731C49.9417 70.4336 50.4173 70.4183 50.8357 70.2306C51.2541 70.0428 51.5816 69.6977 51.7473 69.27L52.5825 66.7487H59.594C59.7018 66.7487 59.8094 66.7379 59.915 66.7165L60.761 69.27C60.8385 69.4878 60.9585 69.6881 61.1141 69.859C61.2697 70.03 61.4578 70.1683 61.6674 70.2659C61.8769 70.3635 62.1038 70.4184 62.3348 70.4274C62.5658 70.4364 62.7963 70.3993 63.0129 70.3184C63.2294 70.2375 63.4277 70.1142 63.5962 69.9559C63.7646 69.7976 63.8999 69.6073 63.9941 69.3962C64.0883 69.1851 64.1395 68.9573 64.1449 68.7262C64.1502 68.4951 64.1094 68.2652 64.025 68.05L58.7945 54.0527ZM54.125 63.6062L56.6053 56.12L59.0855 63.6062H54.125Z" fill="white"/>
<path d="M50.741 54.0597C50.741 53.5976 50.5575 53.1544 50.2307 52.8275C49.9039 52.5007 49.4607 52.3171 48.9985 52.317H38.3555C37.8933 52.317 37.4501 52.5006 37.1232 52.8274C36.7964 53.1543 36.6128 53.5975 36.6128 54.0597C36.6128 54.522 36.7964 54.9652 37.1232 55.2921C37.4501 55.6189 37.8933 55.8025 38.3555 55.8025H41.9343V68.6592C41.9343 69.1214 42.1179 69.5646 42.4447 69.8914C42.7714 70.2182 43.2147 70.4017 43.6768 70.4017C44.1389 70.4017 44.5821 70.2182 44.9089 69.8914C45.2357 69.5646 45.4193 69.1214 45.4193 68.6592V55.8025H48.9998C49.4617 55.8021 49.9046 55.6183 50.2311 55.2915C50.5576 54.9647 50.741 54.5217 50.741 54.0597Z" fill="white"/>
<path d="M74.2748 66.7662H69.3248V54.0597C69.3248 53.5976 69.1413 53.1544 68.8145 52.8276C68.4877 52.5008 68.0445 52.3172 67.5823 52.3172C67.1202 52.3172 66.677 52.5008 66.3502 52.8276C66.0234 53.1544 65.8398 53.5976 65.8398 54.0597V68.1522C65.8402 68.7091 66.0616 69.243 66.4554 69.6367C66.8491 70.0305 67.383 70.2518 67.9398 70.2522H74.2748C74.737 70.2522 75.1802 70.0687 75.507 69.7419C75.8338 69.4151 76.0173 68.9719 76.0173 68.5097C76.0173 68.0476 75.8338 67.6044 75.507 67.2776C75.1802 66.9508 74.737 66.7672 74.2748 66.7672V66.7662Z" fill="white"/>
<path d="M84.7407 60.3735L89.9002 55.387C90.2225 55.0691 90.4062 54.6368 90.4115 54.1842C90.4168 53.7315 90.2433 53.2951 89.9287 52.9696C89.6141 52.6442 89.1837 52.456 88.7311 52.4461C88.2786 52.4362 87.8404 52.6052 87.5117 52.9165L81.078 59.6075V54.0597C81.078 53.5716 80.884 53.1034 80.5388 52.7581C80.1936 52.4129 79.7254 52.219 79.2372 52.219C78.749 52.219 78.2808 52.4129 77.9356 52.7581C77.5904 53.1034 77.3965 53.5716 77.3965 54.0597V68.6598C77.3965 69.1479 77.5904 69.6161 77.9356 69.9614C78.2808 70.3066 78.749 70.5005 79.2372 70.5005C79.7254 70.5005 80.1936 70.3066 80.5388 69.9614C80.884 69.6161 81.078 69.1479 81.078 68.6598V63.914L82.2587 62.7725L87.367 69.6442C87.6633 70.024 88.0983 70.2706 88.5764 70.3296C89.0545 70.3886 89.5364 70.2553 89.9162 69.959C90.296 69.6627 90.5426 69.2276 90.6016 68.7496C90.6606 68.2715 90.5273 67.7895 90.231 67.4098L84.7407 60.3735Z" fill="white"/>
<path d="M64 0C28.6538 0 0 28.6538 0 64C0 99.3462 28.6538 128 64 128C99.3462 128 128 99.3462 128 64C128 28.6538 99.3462 0 64 0ZM64 89.7337C61.5969 89.7346 59.1973 89.5487 56.823 89.1775L42.3262 99.3443C42.1722 99.4523 41.9887 99.5104 41.8005 99.5107C41.6124 99.5111 41.4287 99.4536 41.2742 99.3461C41.1198 99.2387 41.0021 99.0863 40.937 98.9098C40.872 98.7333 40.8627 98.541 40.9105 98.359L44.3553 85.23C34.1233 80.0925 27.3333 71.0613 27.3333 60.7765C27.3333 44.7838 43.75 31.8193 64 31.8193C84.25 31.8193 100.667 44.7838 100.667 60.7765C100.667 76.7693 84.25 89.7337 64 89.7337Z" fill="white"/>
</g>
<defs>
<clipPath id="clip0_402_154">
<rect width="128" height="128" fill="white"/>
</clipPath>
</defs>
</svg>
