<svg width="128" height="128" viewBox="0 0 128 128" fill="none" xmlns="http://www.w3.org/2000/svg">
<g clip-path="url(#clip0_408_292)">
<rect width="128" height="128" fill="white"/>
<rect x="20" y="19" width="87" height="88" fill="black"/>
<mask id="mask0_408_292" style="mask-type:luminance" maskUnits="userSpaceOnUse" x="0" y="0" width="128" height="128">
<path d="M128 0H0V128H128V0Z" fill="white"/>
</mask>
<g mask="url(#mask0_408_292)">
<path d="M58.7945 54.0528C58.6003 53.536 58.2531 53.0907 57.7992 52.7763C57.3453 52.4619 56.8063 52.2935 56.2541 52.2935C55.702 52.2935 55.163 52.4619 54.7091 52.7763C54.2552 53.0907 53.908 53.536 53.7138 54.0528L48.4825 68.0501C48.3271 68.4816 48.348 68.9569 48.5408 69.3731C48.7335 69.7892 49.0825 70.1126 49.5121 70.2732C49.9417 70.4337 50.4173 70.4184 50.8357 70.2307C51.2541 70.0429 51.5816 69.6978 51.7473 69.2701L52.5825 66.7488H59.594C59.7018 66.7488 59.8094 66.738 59.915 66.7166L60.761 69.2701C60.8385 69.4879 60.9585 69.6882 61.1141 69.8591C61.2697 70.0301 61.4578 70.1684 61.6674 70.266C61.8769 70.3636 62.1038 70.4185 62.3348 70.4275C62.5658 70.4365 62.7963 70.3994 63.0129 70.3185C63.2294 70.2376 63.4277 70.1143 63.5962 69.956C63.7646 69.7977 63.8999 69.6074 63.9941 69.3963C64.0883 69.1852 64.1395 68.9574 64.1449 68.7263C64.1502 68.4952 64.1094 68.2653 64.025 68.0501L58.7945 54.0528ZM54.125 63.6063L56.6053 56.1201L59.0855 63.6063H54.125Z" fill="white"/>
<path d="M50.741 54.0596C50.741 53.5975 50.5575 53.1543 50.2307 52.8274C49.9039 52.5006 49.4607 52.317 48.9985 52.3169H38.3555C37.8933 52.3169 37.4501 52.5005 37.1232 52.8273C36.7964 53.1542 36.6128 53.5974 36.6128 54.0596C36.6128 54.5219 36.7964 54.9651 37.1232 55.292C37.4501 55.6188 37.8933 55.8024 38.3555 55.8024H41.9343V68.6591C41.9343 69.1213 42.1179 69.5645 42.4447 69.8913C42.7714 70.2181 43.2147 70.4016 43.6768 70.4016C44.1389 70.4016 44.5821 70.2181 44.9089 69.8913C45.2357 69.5645 45.4193 69.1213 45.4193 68.6591V55.8024H48.9998C49.4617 55.802 49.9046 55.6182 50.2311 55.2914C50.5576 54.9646 50.741 54.5216 50.741 54.0596Z" fill="white"/>
<path d="M74.2748 66.7664H69.3248V54.0599C69.3248 53.5978 69.1413 53.1546 68.8145 52.8278C68.4877 52.501 68.0445 52.3174 67.5823 52.3174C67.1202 52.3174 66.677 52.501 66.3502 52.8278C66.0234 53.1546 65.8398 53.5978 65.8398 54.0599V68.1524C65.8402 68.7093 66.0616 69.2432 66.4554 69.6369C66.8491 70.0307 67.383 70.252 67.9398 70.2524H74.2748C74.737 70.2524 75.1802 70.0689 75.507 69.7421C75.8338 69.4153 76.0173 68.9721 76.0173 68.5099C76.0173 68.0478 75.8338 67.6046 75.507 67.2778C75.1802 66.951 74.737 66.7664 74.2748 66.7664Z" fill="white"/>
<path d="M84.7407 60.3737L89.9002 55.3872C90.2225 55.0693 90.4062 54.637 90.4115 54.1844C90.4168 53.7317 90.2433 53.2953 89.9287 52.9698C89.6141 52.6444 89.1837 52.4562 88.7311 52.4463C88.2786 52.4364 87.8404 52.6054 87.5117 52.9167L81.078 59.6077V54.0599C81.078 53.5718 80.884 53.1036 80.5388 52.7583C80.1936 52.4131 79.7254 52.2192 79.2372 52.2192C78.749 52.2192 78.2808 52.4131 77.9356 52.7583C77.5904 53.1036 77.3965 53.5718 77.3965 54.0599V68.66C77.3965 69.1481 77.5904 69.6163 77.9356 69.9616C78.2808 70.3068 78.749 70.5007 79.2372 70.5007C79.7254 70.5007 80.1936 70.3068 80.5388 69.9616C80.884 69.6163 81.078 69.1481 81.078 68.66V63.9142L82.2587 62.7727L87.367 69.6444C87.6633 70.0242 88.0983 70.2708 88.5764 70.3298C89.0545 70.3888 89.5364 70.2555 89.9162 69.9592C90.296 69.6629 90.5426 69.2278 90.6016 68.7498C90.6606 68.2717 90.5273 67.7897 90.231 67.41L84.7407 60.3737Z" fill="white"/>
<path d="M64 0C28.6538 0 0 28.6538 0 64C0 99.3462 28.6538 128 64 128C99.3462 128 128 99.3462 128 64C128 28.6538 99.3462 0 64 0ZM64 89.7337C61.5969 89.7346 59.1973 89.5487 56.823 89.1775L42.3262 99.3443C42.1722 99.4523 41.9887 99.5104 41.8005 99.5107C41.6124 99.5111 41.4287 99.4536 41.2742 99.3461C41.1198 99.2387 41.0021 99.0863 40.937 98.9098C40.872 98.7333 40.8627 98.541 40.9105 98.359L44.3553 85.23C34.1233 80.0925 27.3333 71.0613 27.3333 60.7765C27.3333 44.7838 43.75 31.8193 64 31.8193C84.25 31.8193 100.667 44.7838 100.667 60.7765C100.667 76.7693 84.25 89.7337 64 89.7337Z" fill="white"/>
</g>
</g>
<defs>
<clipPath id="clip0_408_292">
<rect width="128" height="128" fill="white"/>
</clipPath>
</defs>
</svg>
