<svg width="128" height="128" viewBox="0 0 128 128" fill="none" xmlns="http://www.w3.org/2000/svg">
<g clip-path="url(#clip0_401_143)">
<path d="M64 0C28.6536 0 0 28.6536 0 64C0 99.3464 28.6536 128 64 128C99.3464 128 128 99.3464 128 64C128 28.6536 99.3464 0 64 0ZM36.3113 53.3891C34.1287 53.3897 31.995 52.7429 30.1799 51.5308C28.3649 50.3186 26.9501 48.5954 26.1145 46.5791C25.2789 44.5628 25.06 42.344 25.4854 40.2033C25.9109 38.0625 26.9616 36.0961 28.5047 34.5526C30.0479 33.009 32.0141 31.9578 34.1547 31.5318C36.2953 31.1058 38.5142 31.3242 40.5307 32.1593C42.5472 32.9944 44.2707 34.4087 45.4834 36.2235C46.696 38.0382 47.3433 40.1717 47.3433 42.3543C47.3425 45.2802 46.1801 48.0861 44.1114 50.1553C42.0428 52.2245 39.2372 53.3876 36.3113 53.3891ZM64 108.758C61.8181 108.758 59.6852 108.111 57.871 106.899C56.0568 105.687 54.6428 103.964 53.8078 101.948C52.9728 99.9321 52.7543 97.7139 53.18 95.574C53.6057 93.434 54.6564 91.4682 56.1992 89.9254C57.7421 88.3825 59.7078 87.3319 61.8478 86.9062C63.9878 86.4805 66.2059 86.699 68.2218 87.534C70.2376 88.3689 71.9605 89.7829 73.1728 91.5971C74.385 93.4113 75.032 95.5443 75.032 97.7262C75.032 100.652 73.8697 103.458 71.8008 105.527C69.7319 107.596 66.9259 108.758 64 108.758ZM64 81.0695C61.8181 81.0695 59.6852 80.4224 57.871 79.2102C56.0568 77.998 54.6428 76.2751 53.8078 74.2592C52.9728 72.2434 52.7543 70.0252 53.18 67.8852C53.6057 65.7452 54.6564 63.7795 56.1992 62.2367C57.7421 60.6938 59.7078 59.6431 61.8478 59.2175C63.9878 58.7918 66.2059 59.0103 68.2218 59.8452C70.2376 60.6802 71.9605 62.0942 73.1728 63.9084C74.385 65.7226 75.032 67.8555 75.032 70.0375C75.0331 71.4869 74.7485 72.9224 74.1946 74.2618C73.6407 75.6012 72.8283 76.8184 71.8037 77.8437C70.7792 78.869 69.5627 79.6823 68.2237 80.2373C66.8847 80.7922 65.4494 81.0778 64 81.0778V81.0695ZM64 53.3807C61.8174 53.3813 59.6837 52.7346 57.8686 51.5224C56.0536 50.3102 54.6388 48.587 53.8032 46.5707C52.9676 44.5544 52.7487 42.3356 53.1741 40.1949C53.5996 38.0542 54.6503 36.0877 56.1935 34.5442C57.7366 33.0007 59.7028 31.9494 61.8434 31.5234C63.984 31.0974 66.2029 31.3158 68.2194 32.1509C70.2359 32.986 71.9595 34.4004 73.1721 36.2151C74.3847 38.0298 75.032 40.1634 75.032 42.346C75.0331 43.7955 74.7486 45.2311 74.1947 46.5707C73.6408 47.9103 72.8284 49.1276 71.8039 50.1532C70.7794 51.1787 69.5629 51.9923 68.2239 52.5475C66.8849 53.1028 65.4496 53.3887 64 53.3891V53.3807ZM91.6887 53.3807C89.5062 53.3807 87.3728 52.7336 85.5581 51.521C83.7435 50.3085 82.3291 48.5851 81.4939 46.5688C80.6587 44.5525 80.4402 42.3337 80.866 40.1932C81.2917 38.0527 82.3427 36.0864 83.886 34.5432C85.4292 33 87.3954 31.949 89.5359 31.5232C91.6765 31.0974 93.8952 31.316 95.9115 32.1512C97.9279 32.9864 99.6513 34.4007 100.864 36.2154C102.076 38.03 102.723 40.1635 102.723 42.346C102.725 43.7958 102.44 45.2316 101.886 46.5714C101.332 47.9111 100.519 49.1286 99.4944 50.1541C98.4696 51.1797 97.2528 51.9933 95.9135 52.5483C94.5741 53.1034 93.1385 53.3891 91.6887 53.3891V53.3807Z" fill="black"/>
</g>
<defs>
<clipPath id="clip0_401_143">
<rect width="128" height="128" fill="white"/>
</clipPath>
</defs>
</svg>
