<svg width="128" height="128" viewBox="0 0 128 128" fill="none" xmlns="http://www.w3.org/2000/svg">
<g clip-path="url(#clip0_408_256)">
<g clip-path="url(#clip1_408_256)">
<rect width="128" height="128" fill="white"/>
<mask id="mask0_408_256" style="mask-type:luminance" maskUnits="userSpaceOnUse" x="0" y="0" width="128" height="128">
<path d="M128 0H0V128H128V0Z" fill="white"/>
</mask>
<g mask="url(#mask0_408_256)">
<path fill-rule="evenodd" clip-rule="evenodd" d="M64 128C99.3462 128 128 99.3462 128 64C128 28.6538 99.3462 0 64 0C28.6538 0 0 28.6538 0 64C0 99.3462 28.6538 128 64 128Z" fill="white"/>
<path fill-rule="evenodd" clip-rule="evenodd" d="M54.2404 101.369C54.2404 100.41 54.2066 97.8712 54.1872 94.4997C43.2322 96.9391 40.9208 89.0855 40.9208 89.0855C39.1292 84.4199 36.547 83.1779 36.547 83.1779C32.9711 80.6715 36.8178 80.7236 36.8178 80.7236C40.7709 81.0087 42.8502 84.8859 42.8502 84.8859C46.3633 91.0563 52.0668 89.2763 54.313 88.2426C54.6708 85.6321 55.6887 83.8522 56.813 82.8432C48.0678 81.8243 38.8729 78.3586 38.8729 62.8843C38.8729 58.4766 40.4082 54.872 42.9276 52.0484C42.5238 51.027 41.1699 46.9217 43.3144 41.3612C43.3144 41.3612 46.622 40.2754 54.1437 45.5012C57.2844 44.6063 60.6548 44.1551 64.0059 44.1402C67.3497 44.1551 70.7177 44.6063 73.8656 45.5012C81.3826 40.2754 84.6853 41.3612 84.6853 41.3612C86.8347 46.9192 85.4831 51.0245 85.077 52.0484C87.6011 54.872 89.1243 58.4766 89.1243 62.8843C89.1243 78.3983 79.915 81.8119 71.1408 82.811C72.5576 84.0579 73.8149 86.5221 73.8149 90.2903C73.8149 95.6897 73.7641 100.046 73.7641 101.369C73.7641 102.45 74.4749 103.705 76.4744 103.31C92.1103 97.9605 103.384 82.8333 103.384 64.999C103.384 42.6949 85.7491 24.6152 63.9986 24.6152C42.2506 24.6152 24.6152 42.6949 24.6152 64.999C24.6177 82.8382 35.9015 97.9753 51.5519 103.315C53.5199 103.685 54.2404 102.438 54.2404 101.369Z" fill="black"/>
</g>
</g>
</g>
<defs>
<clipPath id="clip0_408_256">
<rect width="128" height="128" fill="white"/>
</clipPath>
<clipPath id="clip1_408_256">
<rect width="128" height="128" fill="white"/>
</clipPath>
</defs>
</svg>
